# AST/ASF file generated using VICON BodyLanguage
# -----------------------------------------------
:version 1.10
:name VICON
:units
  mass 1.0
  length 0.45
  angle deg
:documentation
   .ast/.asf automatically generated from VICON data using
   VICON BodyBuilder and BodyLanguage model FoxedUp or BRILLIANT.MOD
:root
   order TX TY TZ RX RY RZ
   axis XYZ
   position 0 0 0  
   orientation 0 0 0 
:bonedata
  begin
     id 1 
     name lhipjoint
     direction 0.661853 -0.702389 0.261917 
     length 2.64193 
     axis 0 0 0  XYZ
  end
  begin
     id 2 
     name lfemur
     direction 0.34202 -0.939693 0  
     length 7.01722  
     axis 0 0 20  XYZ
    dof rx ry rz
    limits (-160.0 20.0)
           (-70.0 70.0)
           (-60.0 70.0)
  end
  begin
     id 3 
     name ltibia
     direction 0.34202 -0.939693 0   
     length 8.25008   
     axis 0 0 20   XYZ
    dof rx
    limits (-10.0 170.0)
  end
  begin
     id 4 
     name lfoot
     direction 0.0709916 -0.195048 0.978221   
     length 2.31941   
     axis -90 7.62852e-016 20   XYZ
    dof rx rz
    limits (-45.0 90.0)
           (-70.0 20.0)
  end
  begin
     id 5 
     name ltoes
     direction 1.53586e-011 -4.22017e-011 1   
     length 1.16486   
     axis -90 7.62852e-016 20   XYZ
    dof rx
    limits (-90.0 20.0)
  end
  begin
     id 6 
     name rhipjoint
     direction -0.638185 -0.721362 0.268992   
     length 2.57244  
     axis 0 0 0  XYZ 
  end
  begin
     id 7 
     name rfemur
     direction -0.34202 -0.939693 0   
     length 7.07017   
     axis 0 0 -20   XYZ
    dof rx ry rz
    limits (-160.0 20.0)
           (-70.0 70.0)
           (-70.0 60.0)
  end
  begin
     id 8 
     name rtibia
     direction -0.34202 -0.939693 0   
     length 8.20386   
     axis 0 0 -20   XYZ
    dof rx
    limits (-10.0 170.0)
 end
 begin
     id 9 
     name rfoot
     direction -0.0822429 -0.225961 0.970658   
     length 2.32215  
     axis -90 -7.62852e-016 -20   XYZ
    dof rx rz
    limits (-45.0 90.0)
           (-20.0 70.0)
  end
  begin
     id 10 
     name rtoes
     direction -1.53597e-011 -4.21689e-011 1   
     length 1.16333   
     axis -90 -7.62852e-016 -20   XYZ
    dof rx
    limits (-90.0 20.0)
  end
  begin
     id 11 
     name lowerback
     direction -0.0131557 0.998589 -0.0514484   
     length 2.14993   
     axis 0 0 0   XYZ
    dof rx ry rz
    limits (-20.0 45.0)
           (-30.0 30.0)
           (-30.0 30.0)
  end
  begin
     id 12 
     name upperback
     direction -0.000776481 0.999993 0.00352685   
     length 2.15301   
     axis 0 0 0   XYZ
    dof rx ry rz
    limits (-20.0 45.0)
           (-30.0 30.0)
           (-30.0 30.0)
  end
  begin
     id 13 
     name thorax
     direction 0.00438186 0.999609 0.0276143   
     length 2.15424   
     axis 0 0 0   XYZ
    dof rx ry rz
    limits (-20.0 45.0)
           (-30.0 30.0)
           (-30.0 30.0)
  end
  begin
     id 14 
     name lowerneck
     direction -0.0488006 0.998094 0.0377807   
     length 1.90481   
     axis 0 0 0   XYZ
    dof rx ry rz
    limits (-20.0 45.0)
           (-30.0 30.0)
           (-30.0 30.0)
  end
  begin
     id 15 
     name upperneck
     direction 0.0443769 0.990702 -0.12861   
     length 1.91305   
     axis 0 0 0   XYZ
    dof rx ry rz
    limits (-20.0 45.0)
           (-30.0 30.0)
           (-30.0 30.0)
  end
  begin
     id 16
     name head
     direction 0.0165599 0.998647 -0.0492982  
     length 1.92369  
     axis 0 0 0   XYZ
    dof rx ry rz
    limits (-20.0 45.0)
           (-30.0 30.0)
           (-30.0 30.0)
  end
  begin
     id 17 
     name lclavicle
     direction 0.911936 0.410197 -0.0105506  
     length 3.52622  
     axis 0 0 0   XYZ
    dof ry rz
    limits (-20.0 10.0)
           (0.0 20.0)
  end
  begin
     id 18 
     name lhumerus
     direction 1 -4.48974e-011 -2.48591e-028   
     length 5.47651   
     axis 180 -30 -90   XYZ
    dof rx ry rz
    limits (-60.0 90.0)
           (-90.0 90.0)
           (-90.0 90.0)
  end
  begin
     id 19
     name lradius
     direction 1 -4.48938e-011 -4.40099e-027   
     length 3.09058   
     axis 180 -30 -90   XYZ
    dof rx
    limits (-10.0 170.0)
  end
  begin
     id 20
     name lwrist
     direction 1 -4.49042e-011 -2.99852e-027   
     length 1.54529   
     axis 1.95339e-015 90 90   XYZ
    dof ry
    limits (-180.0 0.0)
 end
  begin
     id 21 
     name lhand
     direction 1 -4.48815e-011 -5.98193e-027   
     length 0.771611   
     axis 3.82337e-015 90 90   XYZ
    dof rx rz
    limits (-90.0 90.0)
           (-45.0 45.0)
  end
  begin
     id 22 
     name lfingers
     direction 1 -4.49034e-011 -1.1993e-026   
     length 0.622093   
     axis 7.64668e-015 90 90   XYZ
    dof rx
    limits (0.0 90.0)
  end
  begin
     id 23
     name lthumb
     direction 0.707107 -6.34867e-011 0.707107   
     length 0.893204   
     axis -90 45 -1.62303e-014   XYZ
    dof rx rz
    limits (-45.0 45.0)
           (-45.0 45.0)
  end
  begin
     id 24 
     name rclavicle
     direction -0.93442 0.355634 -0.0195692   
     length 3.62463  
     axis 0 0 0   XYZ 
    dof ry rz
    limits (-10.0 20.0)
           (-20.0 0.0)
  end
  begin
     id 25 
     name rhumerus
     direction -1 -4.48957e-011 -1.19147e-027  
     length 5.14182   
     axis 180 30 90   XYZ
    dof rx ry rz
    limits (-90.0 60.0)
           (-90.0 90.0)
           (-90.0 90.0)
  end
  begin
     id 26 
     name rradius
     direction -1 -4.48952e-011 -3.81062e-027   
     length 3.35565   
     axis 180 30 90   XYZ
    dof rx
    limits (-10.0 170.0)
  end
  begin
     id 27 
     name rwrist
     direction -1 -4.48973e-011 -2.99621e-027   
     length 1.67782   
     axis 1.95339e-015 -90 -90   XYZ
    dof ry
    limits (-180.0 0.0)
  end
  begin
     id 28
     name rhand
     direction -1 -4.48895e-011 -5.98727e-027   
     length 0.801042   
     axis 3.82337e-015 -90 -90   XYZ
    dof rx rz
    limits (-90.0 90.0)
           (-45.0 45.0)
  end
  begin
     id 29
     name rfingers
     direction -1 -4.49065e-011 -1.19972e-026   
     length 0.645821   
     axis 7.64668e-015 -90 -90   XYZ
    dof rx
    limits (0.0 90.0)
  end
  begin
     id 30
     name rthumb
     direction -0.707107 -6.34957e-011 0.707107   
     length 0.927273   
     axis -90 -45 1.62303e-014   XYZ
    dof rx rz
    limits (-45.0 45.0)
           (-45.0 45.0)
  end
:hierarchy
  begin
    root lhipjoint rhipjoint lowerback
    lhipjoint lfemur
    lfemur ltibia
    ltibia lfoot
    lfoot ltoes
    rhipjoint rfemur
    rfemur rtibia
    rtibia rfoot
    rfoot rtoes
    lowerback upperback
    upperback thorax
    thorax lowerneck lclavicle rclavicle
    lowerneck upperneck
    upperneck head
    lclavicle lhumerus
    lhumerus lradius
    lradius lwrist
    lwrist lhand lthumb
    lhand lfingers
    rclavicle rhumerus
    rhumerus rradius
    rradius rwrist
    rwrist rhand rthumb
    rhand rfingers
  end

#!OML:ASF E:\Style4\Style4.ASF
:FULLY-SPECIFIED
:DEGREES
399
root 0.178554 18.008 -0.313125 -1.52621 -1.03961 2.85009
lowerback 4.97089 2.13739 1.71099
upperback 6.88405 2.85223 0.943729
thorax 4.37049 1.48084 -0.00936634
lowerneck 7.55485 -3.38257 -4.75635
upperneck 11.5935 -4.66825 -0.592503
head 2.50924 -2.49979 0.611306
rclavicle -3.04141e-014 -3.18055e-015
rhumerus -35.9293 5.24843 -89.3156
rradius 46.9399
rwrist -28.1909
rhand -2.62021 -6.34423
rfingers 7.12502
rthumb 23.0784 -34.9822
lclavicle -3.04141e-014 -3.18055e-015
lhumerus -28.9288 -20.3388 93.2564
lradius 37.8056
lwrist 34.8269
lhand 5.76331 42.884
lfingers 7.12502
lthumb 31.0978 70.2668
rfemur -4.80346 8.4987 16.8564
rtibia 23.4872
rfoot -16.9837 -14.5144
rtoes -11.0587
lfemur -1.69414 -5.56187 -22.9148
ltibia 18.3081
lfoot -15.6775 9.94827
ltoes -12.3555
400
root 0.179378 18.0024 -0.300353 -1.58714 -1.40603 2.9406
lowerback 4.86844 2.15843 1.51381
upperback 6.85505 2.87602 0.894669
thorax 4.38971 1.48446 0.0529157
lowerneck 7.41892 -3.28038 -4.70482
upperneck 11.7692 -4.52036 -0.61012
head 2.58618 -2.42859 0.593389
rclavicle -2.22639e-014 -1.35174e-014
rhumerus -35.9046 5.16493 -89.3352
rradius 46.9362
rwrist -28.1245
rhand -2.79566 -6.20169
rfingers 7.12502
rthumb 22.9101 -34.8606
lclavicle -2.22639e-014 -1.35174e-014
lhumerus -29.0556 -20.2657 93.2297
lradius 38.0285
lwrist 34.9603
lhand 5.63794 43.0229
lfingers 7.12502
lthumb 30.9783 70.4285
rfemur -4.80053 8.5359 16.7482
rtibia 23.532
rfoot -16.9599 -14.2935
rtoes -11.6127
lfemur -1.60756 -5.38702 -23.0329
ltibia 18.4332
lfoot -15.8772 10.0335
ltoes -11.7493
401
root 0.18065 17.9987 -0.28589 -1.66683 -1.79205 2.9192
lowerback 4.79 2.19308 1.42814
upperback 6.82044 2.91931 0.887758
thorax 4.39352 1.5018 0.0954083
lowerneck 7.3121 -3.20689 -4.65384
upperneck 11.9722 -4.41048 -0.641213
head 2.66835 -2.37674 0.571518
rclavicle 1.19271e-014 7.95139e-016
rhumerus -35.9138 5.08119 -89.3294
rradius 46.8786
rwrist -27.9663
rhand -2.77882 -6.01001
rfingers 7.12502
rthumb 22.9262 -34.6669
lclavicle 1.19271e-014 7.95139e-016
lhumerus -29.1776 -20.1892 93.2332
lradius 38.1634
lwrist 35.0208
lhand 5.6143 42.9208
lfingers 7.12502
lthumb 30.9557 70.3307
rfemur -4.78866 8.59807 16.7694
rtibia 23.6183
rfoot -16.9691 -14.0957
rtoes -12.0631
lfemur -1.44392 -5.20282 -23.0397
ltibia 18.4678
lfoot -16.018 10.2448
ltoes -12.0685
402
root 0.182886 17.9968 -0.2723 -1.75751 -2.12679 2.92267
lowerback 4.68896 2.21547 1.32535
upperback 6.78411 2.94615 0.872788
thorax 4.40747 1.51042 0.140228
lowerneck 7.26932 -3.13999 -4.66426
upperneck 12.1892 -4.32184 -0.590219
head 2.74934 -2.33621 0.587355
rclavicle -1.98785e-015 -5.56597e-015
rhumerus -35.8706 5.0186 -89.3354
rradius 46.7178
rwrist -27.7541
rhand -2.70485 -5.9391
rfingers 7.12502
rthumb 22.9972 -34.5872
lclavicle -1.98785e-015 -5.56597e-015
lhumerus -29.3311 -20.4093 93.3177
lradius 38.3056
lwrist 35.3449
lhand 5.5389 43.0441
lfingers 7.12502
lthumb 30.8838 70.4676
rfemur -4.76485 8.68233 16.7548
rtibia 23.7281
rfoot -17.0583 -13.8313
rtoes -11.8881
lfemur -1.24219 -5.03037 -23.0742
ltibia 18.4384
lfoot -16.1275 10.446
ltoes -12.735
403
root 0.184429 17.9942 -0.259986 -1.8481 -2.42874 3.00867
lowerback 4.5952 2.22446 1.10914
upperback 6.73334 2.95435 0.848125
thorax 4.39629 1.50471 0.237438
lowerneck 7.27506 -3.04209 -4.67445
upperneck 12.344 -4.19628 -0.53279
head 2.80006 -2.27625 0.606947
rclavicle -3.77691e-015 1.19271e-014
rhumerus -35.8156 5.05722 -89.3479
rradius 46.5349
rwrist -27.6738
rhand -2.54545 -5.95414
rfingers 7.12502
rthumb 23.1502 -34.5831
lclavicle -3.77691e-015 1.19271e-014
lhumerus -29.5644 -20.7675 93.4613
lradius 38.5168
lwrist 35.7938
lhand 5.31679 43.2378
lfingers 7.12502
lthumb 30.6721 70.7013
rfemur -4.74016 8.74844 16.6472
rtibia 23.8352
rfoot -17.1451 -13.5554
rtoes -11.5005
lfemur -1.05341 -4.83583 -23.1926
ltibia 18.4052
lfoot -16.1672 10.6368
ltoes -13.4532
404
root 0.186972 17.9901 -0.246318 -1.95048 -2.74287 3.06955
lowerback 4.51103 2.22974 0.929499
upperback 6.68032 2.95764 0.851955
thorax 4.37788 1.49754 0.343262
lowerneck 7.27748 -2.90799 -4.75851
upperneck 12.5112 -4.02743 -0.454998
head 2.85732 -2.19781 0.645905
rclavicle 3.4191e-014 -5.56597e-015
rhumerus -35.7308 5.24575 -89.3242
rradius 46.3491
rwrist -27.8426
rhand -2.32863 -6.15244
rfingers 7.12502
rthumb 23.3582 -34.7551
lclavicle 3.4191e-014 -5.56597e-015
lhumerus -29.7955 -20.8799 93.603
lradius 38.6706
lwrist 35.893
lhand 5.09429 43.1088
lfingers 7.12502
lthumb 30.4599 70.6118
rfemur -4.71253 8.74646 16.5627
rtibia 23.9427
rfoot -17.1756 -13.3221
rtoes -11.6705
lfemur -0.84485 -4.69084 -23.2972
ltibia 18.3835
lfoot -16.2719 10.7891
ltoes -13.004
405
root 0.188964 17.9853 -0.233967 -2.03829 -3.01395 3.1351
lowerback 4.42233 2.23718 0.767622
upperback 6.62707 2.965 0.83579
thorax 4.36388 1.49391 0.418813
lowerneck 7.19403 -2.80675 -4.74296
upperneck 12.7663 -3.88541 -0.45317
head 2.95569 -2.13151 0.641521
rclavicle 6.12257e-014 -7.15625e-015
rhumerus -35.5458 5.44846 -89.3287
rradius 46.1063
rwrist -27.9507
rhand -2.177 -6.45894
rfingers 7.12502
rthumb 23.5036 -35.0431
lclavicle 6.12257e-014 -7.15625e-015
lhumerus -29.9663 -20.8354 93.6794
lradius 38.7581
lwrist 35.6409
lhand 4.9072 42.9165
lfingers 7.12502
lthumb 30.2815 70.4525
rfemur -4.69714 8.73319 16.473
rtibia 24.0582
rfoot -17.2327 -13.1058
rtoes -11.7872
lfemur -0.665963 -4.59816 -23.409
ltibia 18.3721
lfoot -16.3571 10.9912
ltoes -13.1645
406
root 0.188253 17.9818 -0.225197 -2.10813 -3.26342 3.10702
lowerback 4.39258 2.24727 0.688002
upperback 6.54932 2.97746 0.834807
thorax 4.29453 1.4963 0.460917
lowerneck 7.11476 -2.73617 -4.68411
upperneck 12.9946 -3.78078 -0.475684
head 3.04368 -2.08191 0.622072
rclavicle -1.90833e-014 6.36111e-015
rhumerus -35.4042 5.59374 -89.3758
rradius 45.8417
rwrist -27.904
rhand -2.18385 -6.59176
rfingers 7.12502
rthumb 23.4971 -35.1767
lclavicle -1.90833e-014 6.36111e-015
lhumerus -30.1483 -20.7628 93.7309
lradius 38.9628
lwrist 35.4489
lhand 4.78094 43.1158
lfingers 7.12502
lthumb 30.161 70.6738
rfemur -4.69658 8.78215 16.5194
rtibia 24.1552
rfoot -17.2054 -13.0268
rtoes -12.3606
lfemur -0.538989 -4.4536 -23.3907
ltibia 18.3939
lfoot -16.4133 11.1768
ltoes -14.1056
407
root 0.187255 17.9776 -0.21591 -2.20814 -3.51522 3.13356
lowerback 4.34949 2.25376 0.514589
upperback 6.51189 2.98333 0.837495
thorax 4.27003 1.49118 0.560792
lowerneck 7.07389 -2.6524 -4.61513
upperneck 13.1265 -3.65966 -0.520621
head 3.09054 -2.02277 0.595088
rclavicle -1.09332e-014 8.74653e-015
rhumerus -35.3063 5.76549 -89.4097
rradius 45.6242
rwrist -27.8807
rhand -2.18956 -6.49178
rfingers 7.12502
rthumb 23.4916 -35.0775
lclavicle -1.09332e-014 8.74653e-015
lhumerus -30.2455 -20.5866 93.7401
lradius 39.1921
lwrist 35.3297
lhand 4.77371 43.4055
lfingers 7.12502
lthumb 30.1541 70.9648
rfemur -4.65356 8.84883 16.5169
rtibia 24.2216
rfoot -17.1706 -12.9708
rtoes -12.9405
lfemur -0.401533 -4.28536 -23.4216
ltibia 18.4445
lfoot -16.5851 11.2481
ltoes -14.2555
408
root 0.186831 17.9745 -0.206017 -2.28164 -3.72551 3.15943
lowerback 4.25879 2.25281 0.382102
upperback 6.48778 2.97994 0.830017
thorax 4.28911 1.4835 0.630053
lowerneck 7.06127 -2.56549 -4.6364
upperneck 13.2049 -3.5492 -0.466616
head 3.1192 -1.96956 0.616424
rclavicle -1.0138e-014 -8.74653e-015
rhumerus -35.1513 5.92349 -89.4177
rradius 45.3721
rwrist -27.9648
rhand -2.06994 -6.36367
rfingers 7.12502
rthumb 23.6063 -34.9346
lclavicle -1.0138e-014 -8.74653e-015
lhumerus -30.3494 -20.5105 93.775
lradius 39.3934
lwrist 35.2471
lhand 4.87339 43.4289
lfingers 7.12502
lthumb 30.2492 70.9707
rfemur -4.61378 8.8885 16.4979
rtibia 24.2544
rfoot -17.1438 -12.8779
rtoes -13.389
lfemur -0.317295 -4.14689 -23.4587
ltibia 18.5285
lfoot -16.6794 11.35
ltoes -14.6982
409
root 0.18815 17.9727 -0.195205 -2.34193 -3.92061 3.10903
lowerback 4.17102 2.24092 0.364745
upperback 6.44952 2.96323 0.833868
thorax 4.29718 1.47406 0.646478
lowerneck 6.93984 -2.47695 -4.69304
upperneck 13.3771 -3.43463 -0.376072
head 3.20155 -1.91662 0.653905
rclavicle 1.15295e-014 -7.95139e-015
rhumerus -34.983 6.06192 -89.4259
rradius 45.0935
rwrist -28.0197
rhand -1.86648 -6.32948
rfingers 7.12502
rthumb 23.8014 -34.8751
lclavicle 1.15295e-014 -7.95139e-015
lhumerus -30.5102 -20.5067 93.8248
lradius 39.6604
lwrist 35.2008
lhand 4.89299 43.4836
lfingers 7.12502
lthumb 30.2679 71.022
rfemur -4.56679 8.90567 16.5506
rtibia 24.2803
rfoot -17.1544 -12.7511
rtoes -13.6259
lfemur -0.223586 -4.06057 -23.4269
ltibia 18.5962
lfoot -16.7589 11.5138
ltoes -14.8253
410
root 0.188923 17.9699 -0.184483 -2.4131 -4.09919 3.03009
lowerback 4.11652 2.26605 0.425242
upperback 6.38916 2.99787 0.81861
thorax 4.2681 1.49441 0.597612
lowerneck 6.83095 -2.43119 -4.6339
upperneck 13.5887 -3.36793 -0.332114
head 3.29278 -1.8834 0.656114
rclavicle 6.20208e-014 6.36111e-015
rhumerus -34.8687 6.11142 -89.4516
rradius 44.8174
rwrist -28.0906
rhand -1.73148 -6.33209
rfingers 7.12502
rthumb 23.9309 -34.8608
lclavicle 6.20208e-014 6.36111e-015
lhumerus -30.7274 -20.6409 93.874
lradius 40.055
lwrist 35.207
lhand 4.95729 43.8248
lfingers 7.12502
lthumb 30.3292 71.3519
rfemur -4.48822 8.93693 16.6402
rtibia 24.3041
rfoot -17.2223 -12.577
rtoes -13.5222
lfemur -0.109562 -3.98732 -23.3562
ltibia 18.6576
lfoot -16.9439 11.6748
ltoes -14.3946
411
root 0.186612 17.967 -0.174204 -2.49393 -4.25462 3.00104
lowerback 4.09455 2.29816 0.375773
upperback 6.31232 3.04093 0.804095
thorax 4.1976 1.51422 0.60864
lowerneck 6.75786 -2.39108 -4.50666
upperneck 13.8494 -3.3036 -0.330194
head 3.39265 -1.84968 0.633099
rclavicle -1.96797e-014 9.54166e-015
rhumerus -34.8328 6.14937 -89.4775
rradius 44.617
rwrist -28.1218
rhand -1.71412 -6.32274
rfingers 7.12502
rthumb 23.9476 -34.8493
lclavicle -1.96797e-014 9.54166e-015
lhumerus -30.9317 -20.7216 93.923
lradius 40.3446
lwrist 35.1615
lhand 5.08874 44.057
lfingers 7.12502
lthumb 30.4546 71.561
rfemur -4.40475 8.99185 16.6873
rtibia 24.3384
rfoot -17.3522 -12.3934
rtoes -13.1163
lfemur 0.0137177 -3.89642 -23.3252
ltibia 18.7091
lfoot -17.1308 11.7118
ltoes -13.8178
